<?xml version="1.0" standalone="no"?>
<!DOCTYPE svg PUBLIC "-//W3C//DTD SVG 20010904//EN"
 "http://www.w3.org/TR/2001/REC-SVG-20010904/DTD/svg10.dtd">
<svg version="1.0" xmlns="http://www.w3.org/2000/svg"
 width="465.000000pt" height="465.000000pt" viewBox="0 0 465.000000 465.000000"
 preserveAspectRatio="xMidYMid meet">
<metadata>
Created by potrace 1.11, written by Peter Selinger 2001-2013
</metadata>
<g transform="translate(0.000000,465.000000) scale(0.100000,-0.100000)"
fill="#000000" stroke="none">
<path d="M2618 4624 c-19 -10 -25 -19 -21 -30 4 -10 -1 -20 -10 -26 -10 -5
-17 -15 -17 -22 0 -35 -84 -70 -121 -51 -13 7 -58 20 -99 30 -83 18 -260 19
-272 1 -5 -7 -8 -7 -8 2 0 8 -5 9 -17 3 -23 -12 -53 -23 -76 -28 -10 -1 -39
-13 -65 -25 -47 -22 -53 -24 -71 -27 -5 0 -17 -8 -26 -17 -8 -9 -41 -22 -73
-30 -79 -20 -75 -19 -97 -31 -11 -6 -34 -13 -51 -16 -38 -6 -74 -24 -74 -37 0
-6 -5 -10 -10 -10 -18 0 -70 -43 -70 -57 0 -8 -4 -12 -8 -9 -5 3 -20 -6 -35
-20 -14 -13 -31 -24 -37 -24 -5 0 -10 -4 -10 -9 0 -5 -19 -30 -42 -56 -72 -81
-88 -100 -88 -107 0 -5 -8 -16 -19 -27 -10 -10 -20 -24 -22 -30 -3 -7 -14 -13
-27 -14 -13 -1 -22 -8 -23 -19 -2 -29 -3 -31 -31 -79 -15 -25 -30 -57 -33 -72
-4 -15 -11 -27 -17 -27 -5 0 -7 -3 -4 -8 2 -4 -4 -25 -14 -47 -10 -22 -16 -43
-14 -47 3 -5 0 -8 -5 -8 -6 0 -11 -10 -11 -22 0 -13 -7 -32 -15 -42 -8 -11
-15 -32 -15 -46 0 -14 -5 -31 -12 -38 -7 -7 -9 -12 -5 -12 4 0 -4 -22 -18 -50
-14 -27 -22 -50 -18 -50 5 0 3 -4 -2 -8 -10 -7 -38 -59 -39 -74 -1 -3 -4 -10
-8 -14 -5 -4 -8 -16 -8 -26 0 -10 -5 -18 -12 -18 -6 0 -8 -3 -5 -7 4 -3 0 -17
-8 -30 -9 -13 -13 -23 -10 -23 3 0 1 -9 -5 -19 -11 -21 -22 -84 -24 -141 0
-19 -5 -38 -11 -42 -6 -5 -5 -8 3 -8 8 0 10 -5 5 -12 -4 -7 -9 -41 -10 -76 -1
-35 -6 -69 -11 -75 -11 -14 -6 -51 11 -87 8 -16 13 -60 12 -120 -1 -52 2 -103
7 -112 6 -12 5 -18 -2 -18 -6 0 -8 -5 -3 -12 4 -7 6 -24 5 -38 -1 -14 2 -49 6
-78 6 -36 6 -52 -2 -52 -8 0 -8 -2 0 -8 23 -15 31 -50 30 -139 -1 -50 2 -89 6
-87 7 5 14 -26 23 -110 12 -105 32 -195 44 -197 3 -1 21 -2 40 -4 18 -2 37 -9
42 -16 5 -8 9 -10 9 -5 0 17 41 -44 51 -76 6 -18 13 -57 16 -87 3 -30 14 -69
25 -87 27 -46 32 -70 33 -157 0 -72 2 -78 22 -83 17 -5 24 -17 33 -57 20 -98
28 -132 30 -132 1 0 3 -7 5 -15 2 -8 10 -34 19 -57 8 -24 12 -43 8 -43 -4 0 0
-6 8 -13 15 -12 82 -142 96 -187 11 -35 11 -43 2 -56 -4 -6 7 -26 27 -47 19
-20 33 -37 30 -37 -3 0 15 -30 40 -66 27 -40 48 -87 55 -118 12 -57 43 -116
62 -116 6 0 9 -3 5 -6 -7 -7 17 -34 30 -34 5 0 15 -9 23 -20 8 -11 18 -20 23
-20 5 0 23 -10 40 -22 17 -12 27 -16 23 -9 -6 10 -3 10 15 -1 13 -7 26 -16 29
-19 7 -8 44 -22 53 -21 4 1 7 -2 7 -8 0 -11 70 -44 85 -41 6 2 7 0 3 -4 -9
-10 15 -34 26 -27 5 3 7 1 3 -4 -8 -13 20 -47 32 -39 6 3 11 2 11 -3 0 -6 10
-8 22 -4 16 4 19 2 13 -9 -7 -11 -6 -12 6 -2 8 6 30 10 49 9 19 -1 41 3 49 9
11 7 13 7 8 -1 -4 -7 4 -11 23 -10 17 1 30 6 30 11 0 6 5 3 10 -5 7 -11 10
-12 10 -2 0 8 6 12 13 9 6 -2 20 0 30 5 11 6 17 5 17 -3 0 -7 7 -8 18 -4 9 4
35 9 57 11 22 3 47 7 55 10 8 3 33 8 55 11 22 3 43 10 47 17 5 7 8 6 8 -4 0
-10 3 -11 8 -4 6 10 45 23 80 26 6 1 12 5 12 10 0 5 5 6 10 3 6 -3 10 -1 10 4
0 6 6 11 14 11 17 0 80 32 84 43 2 4 10 7 18 7 8 0 14 4 14 10 0 5 3 9 8 8 8
-1 45 13 52 21 9 11 85 45 94 42 5 -1 6 5 3 13 -4 10 -1 13 9 9 8 -3 20 0 28
6 7 6 16 8 19 4 4 -3 9 2 13 11 3 9 9 14 14 11 4 -2 28 9 54 26 26 16 50 28
54 25 8 -4 33 20 31 30 0 3 8 17 20 30 11 13 21 25 20 27 -2 9 24 58 47 88 64
80 78 101 81 122 2 12 12 30 22 42 10 11 31 44 47 72 16 29 32 53 37 53 4 0 7
5 7 11 0 5 12 36 26 67 14 31 30 66 34 77 12 26 48 149 55 184 5 26 33 203 40
251 8 58 17 79 38 82 25 4 59 65 48 88 -14 29 1 130 20 130 5 0 8 3 7 8 -5 19
16 73 36 94 23 22 51 98 38 98 -4 0 -1 4 7 9 8 5 16 15 17 23 1 7 5 31 9 53 4
22 13 51 22 64 11 17 12 21 2 15 -11 -6 -12 -5 -2 7 6 8 11 46 11 84 0 96 0
97 14 89 7 -4 8 -3 4 4 -10 16 12 54 27 46 9 -5 9 -4 1 5 -9 10 -8 19 2 40 12
24 27 120 25 161 -1 8 -1 31 -1 50 0 20 -6 83 -14 140 -10 69 -11 109 -5 116
7 8 6 15 -1 19 -7 4 -10 45 -8 118 3 97 1 121 -19 175 -13 35 -19 60 -13 57 5
-3 10 -2 10 4 0 5 -5 13 -10 16 -6 4 -8 10 -5 15 3 5 1 11 -5 15 -5 3 -8 26
-5 51 3 36 -2 58 -27 110 -17 36 -38 70 -47 77 -19 15 -41 52 -41 70 0 7 -9
30 -21 51 -11 22 -23 46 -25 55 -13 54 -42 149 -48 159 -4 7 -13 12 -21 12 -7
0 -24 17 -36 38 -13 20 -27 39 -31 40 -4 2 -8 12 -8 22 0 10 -6 25 -13 32 -8
7 -19 23 -26 36 -6 12 -25 29 -41 37 -17 9 -30 24 -30 34 0 12 -17 26 -50 42
-27 13 -51 27 -51 31 -1 5 -3 13 -4 18 -1 6 -3 17 -4 25 0 8 -7 15 -14 15 -15
0 -36 23 -62 68 -10 17 -22 29 -27 26 -4 -3 -8 -1 -8 4 0 10 -94 82 -105 82
-3 0 -18 6 -35 15 -35 18 -54 19 -44 3 4 -7 3 -8 -4 -4 -6 4 -9 12 -6 19 3 8
-4 13 -16 14 -46 4 -109 47 -195 133 -49 50 -96 90 -105 90 -8 -1 -27 -7 -42
-16z"/>
</g>
</svg>
